<svg xmlns="http://www.w3.org/2000/svg" width="722" height="660" viewBox="0 0 722 660" font-family="Segoe UI, Helvetica, Arial, sans-serif">
<rect width="722" height="660" fill="#ffffff"/>
<text x="361.0" y="26" text-anchor="middle" font-size="17" font-weight="700" fill="#1a1a1a">Aderência por estudo — SCORE_RQ (/5) e SCORE_QA (/4)</text>
<line x1="92" y1="58" x2="92" y2="604" stroke="#e6e6e6"/>
<text x="92" y="52" text-anchor="middle" font-size="9" fill="#999">0%</text>
<line x1="232" y1="58" x2="232" y2="604" stroke="#e6e6e6"/>
<text x="232" y="52" text-anchor="middle" font-size="9" fill="#999">25%</text>
<line x1="372" y1="58" x2="372" y2="604" stroke="#e6e6e6"/>
<text x="372" y="52" text-anchor="middle" font-size="9" fill="#999">50%</text>
<line x1="512" y1="58" x2="512" y2="604" stroke="#e6e6e6"/>
<text x="512" y="52" text-anchor="middle" font-size="9" fill="#999">75%</text>
<line x1="652" y1="58" x2="652" y2="604" stroke="#e6e6e6"/>
<text x="652" y="52" text-anchor="middle" font-size="9" fill="#999">100%</text>
<text x="84" y="80.0" text-anchor="end" font-size="11" font-weight="700" fill="#1b5e20">P21</text>
<rect x="92" y="68" width="504.0" height="9" rx="2" fill="#1565c0"/>
<text x="601.0" y="76" font-size="9" fill="#1565c0">4.5</text>
<rect x="92" y="80" width="560.0" height="9" rx="2" fill="#6a1b9a"/>
<text x="657.0" y="88" font-size="9" fill="#6a1b9a">4.0</text>
<text x="84" y="110.0" text-anchor="end" font-size="11" font-weight="700" fill="#1b5e20">P22</text>
<rect x="92" y="98" width="504.0" height="9" rx="2" fill="#1565c0"/>
<text x="601.0" y="106" font-size="9" fill="#1565c0">4.5</text>
<rect x="92" y="110" width="560.0" height="9" rx="2" fill="#6a1b9a"/>
<text x="657.0" y="118" font-size="9" fill="#6a1b9a">4.0</text>
<text x="84" y="140.0" text-anchor="end" font-size="11" font-weight="700" fill="#1b5e20">P25</text>
<rect x="92" y="128" width="504.0" height="9" rx="2" fill="#1565c0"/>
<text x="601.0" y="136" font-size="9" fill="#1565c0">4.5</text>
<rect x="92" y="140" width="560.0" height="9" rx="2" fill="#6a1b9a"/>
<text x="657.0" y="148" font-size="9" fill="#6a1b9a">4.0</text>
<text x="84" y="170.0" text-anchor="end" font-size="11" font-weight="700" fill="#1b5e20">P27</text>
<rect x="92" y="158" width="504.0" height="9" rx="2" fill="#1565c0"/>
<text x="601.0" y="166" font-size="9" fill="#1565c0">4.5</text>
<rect x="92" y="170" width="560.0" height="9" rx="2" fill="#6a1b9a"/>
<text x="657.0" y="178" font-size="9" fill="#6a1b9a">4.0</text>
<text x="84" y="200.0" text-anchor="end" font-size="11" font-weight="700" fill="#1b5e20">P28</text>
<rect x="92" y="188" width="504.0" height="9" rx="2" fill="#1565c0"/>
<text x="601.0" y="196" font-size="9" fill="#1565c0">4.5</text>
<rect x="92" y="200" width="490.0" height="9" rx="2" fill="#6a1b9a"/>
<text x="587.0" y="208" font-size="9" fill="#6a1b9a">3.5</text>
<text x="84" y="230.0" text-anchor="end" font-size="11" font-weight="700" fill="#1b5e20">P31</text>
<rect x="92" y="218" width="504.0" height="9" rx="2" fill="#1565c0"/>
<text x="601.0" y="226" font-size="9" fill="#1565c0">4.5</text>
<rect x="92" y="230" width="490.0" height="9" rx="2" fill="#6a1b9a"/>
<text x="587.0" y="238" font-size="9" fill="#6a1b9a">3.5</text>
<text x="84" y="260.0" text-anchor="end" font-size="11" font-weight="700" fill="#1b5e20">P34</text>
<rect x="92" y="248" width="448.0" height="9" rx="2" fill="#1565c0"/>
<text x="545.0" y="256" font-size="9" fill="#1565c0">4.0</text>
<rect x="92" y="260" width="560.0" height="9" rx="2" fill="#6a1b9a"/>
<text x="657.0" y="268" font-size="9" fill="#6a1b9a">4.0</text>
<text x="84" y="290.0" text-anchor="end" font-size="11" font-weight="700" fill="#1b5e20">P35</text>
<rect x="92" y="278" width="448.0" height="9" rx="2" fill="#1565c0"/>
<text x="545.0" y="286" font-size="9" fill="#1565c0">4.0</text>
<rect x="92" y="290" width="560.0" height="9" rx="2" fill="#6a1b9a"/>
<text x="657.0" y="298" font-size="9" fill="#6a1b9a">4.0</text>
<text x="84" y="320.0" text-anchor="end" font-size="11" font-weight="700" fill="#1b5e20">P32</text>
<rect x="92" y="308" width="448.0" height="9" rx="2" fill="#1565c0"/>
<text x="545.0" y="316" font-size="9" fill="#1565c0">4.0</text>
<rect x="92" y="320" width="490.0" height="9" rx="2" fill="#6a1b9a"/>
<text x="587.0" y="328" font-size="9" fill="#6a1b9a">3.5</text>
<text x="84" y="350.0" text-anchor="end" font-size="11" font-weight="700" fill="#b71c1c">P38</text>
<rect x="92" y="338" width="392.0" height="9" rx="2" fill="#1565c0"/>
<text x="489.0" y="346" font-size="9" fill="#1565c0">3.5</text>
<rect x="92" y="350" width="560.0" height="9" rx="2" fill="#6a1b9a"/>
<text x="657.0" y="358" font-size="9" fill="#6a1b9a">4.0</text>
<text x="84" y="380.0" text-anchor="end" font-size="11" font-weight="700" fill="#1b5e20">P20</text>
<rect x="92" y="368" width="448.0" height="9" rx="2" fill="#1565c0"/>
<text x="545.0" y="376" font-size="9" fill="#1565c0">4.0</text>
<rect x="92" y="380" width="420.0" height="9" rx="2" fill="#6a1b9a"/>
<text x="517.0" y="388" font-size="9" fill="#6a1b9a">3.0</text>
<text x="84" y="410.0" text-anchor="end" font-size="11" font-weight="700" fill="#1b5e20">P23</text>
<rect x="92" y="398" width="392.0" height="9" rx="2" fill="#1565c0"/>
<text x="489.0" y="406" font-size="9" fill="#1565c0">3.5</text>
<rect x="92" y="410" width="490.0" height="9" rx="2" fill="#6a1b9a"/>
<text x="587.0" y="418" font-size="9" fill="#6a1b9a">3.5</text>
<text x="84" y="440.0" text-anchor="end" font-size="11" font-weight="700" fill="#b71c1c">P30</text>
<rect x="92" y="428" width="336.0" height="9" rx="2" fill="#1565c0"/>
<text x="433.0" y="436" font-size="9" fill="#1565c0">3.0</text>
<rect x="92" y="440" width="560.0" height="9" rx="2" fill="#6a1b9a"/>
<text x="657.0" y="448" font-size="9" fill="#6a1b9a">4.0</text>
<text x="84" y="470.0" text-anchor="end" font-size="11" font-weight="700" fill="#1b5e20">P37</text>
<rect x="92" y="458" width="336.0" height="9" rx="2" fill="#1565c0"/>
<text x="433.0" y="466" font-size="9" fill="#1565c0">3.0</text>
<rect x="92" y="470" width="560.0" height="9" rx="2" fill="#6a1b9a"/>
<text x="657.0" y="478" font-size="9" fill="#6a1b9a">4.0</text>
<text x="84" y="500.0" text-anchor="end" font-size="11" font-weight="700" fill="#1b5e20">P24</text>
<rect x="92" y="488" width="448.0" height="9" rx="2" fill="#1565c0"/>
<text x="545.0" y="496" font-size="9" fill="#1565c0">4.0</text>
<rect x="92" y="500" width="350.0" height="9" rx="2" fill="#6a1b9a"/>
<text x="447.0" y="508" font-size="9" fill="#6a1b9a">2.5</text>
<text x="84" y="530.0" text-anchor="end" font-size="11" font-weight="700" fill="#1b5e20">P33</text>
<rect x="92" y="518" width="448.0" height="9" rx="2" fill="#1565c0"/>
<text x="545.0" y="526" font-size="9" fill="#1565c0">4.0</text>
<rect x="92" y="530" width="350.0" height="9" rx="2" fill="#6a1b9a"/>
<text x="447.0" y="538" font-size="9" fill="#6a1b9a">2.5</text>
<text x="84" y="560.0" text-anchor="end" font-size="11" font-weight="700" fill="#b71c1c">P26</text>
<rect x="92" y="548" width="280.0" height="9" rx="2" fill="#1565c0"/>
<text x="377.0" y="556" font-size="9" fill="#1565c0">2.5</text>
<rect x="92" y="560" width="350.0" height="9" rx="2" fill="#6a1b9a"/>
<text x="447.0" y="568" font-size="9" fill="#6a1b9a">2.5</text>
<text x="84" y="590.0" text-anchor="end" font-size="11" font-weight="700" fill="#b71c1c">P29</text>
<rect x="92" y="578" width="280.0" height="9" rx="2" fill="#1565c0"/>
<text x="377.0" y="586" font-size="9" fill="#1565c0">2.5</text>
<rect x="92" y="590" width="350.0" height="9" rx="2" fill="#6a1b9a"/>
<text x="447.0" y="598" font-size="9" fill="#6a1b9a">2.5</text>
<rect x="92" y="626" width="14" height="9" rx="2" fill="#1565c0"/><text x="112" y="634" font-size="11" fill="#333">SCORE_RQ (máx. 5,0)</text>
<rect x="292" y="626" width="14" height="9" rx="2" fill="#6a1b9a"/><text x="312" y="634" font-size="11" fill="#333">SCORE_QA (máx. 4,0)</text>
<text x="92" y="652" font-size="10" fill="#999">ID verde = Incluir · ID vermelho = Excluir · barras normalizadas ao máximo de cada escala</text>
</svg>
